<svg xmlns="http://www.w3.org/2000/svg" viewBox="0 0 736 483" fill="none" role="img" aria-label="ByteBattle platform preview">
  <rect width="736" height="483" fill="#0e141b"/>
  <rect x="24" y="24" width="688" height="435" rx="16" fill="#1c232d" stroke="#334155" stroke-width="1"/>
  <rect x="24" y="24" width="688" height="40" rx="16" fill="#111827"/>
  <rect x="24" y="48" width="688" height="16" fill="#111827"/>
  <circle cx="48" cy="44" r="6" fill="#ef4444"/>
  <circle cx="68" cy="44" r="6" fill="#eab308"/>
  <circle cx="88" cy="44" r="6" fill="#22c55e"/>
  <text x="368" y="48" text-anchor="middle" fill="#94a3b8" font-family="monospace" font-size="12">bytebattle  competitive coding</text>

  <rect x="48" y="88" width="300" height="340" rx="12" fill="#0e141b" stroke="#334155"/>
  <text x="68" y="118" fill="#2563eb" font-family="monospace" font-size="13" font-weight="bold"># challenge.ts</text>
  <text x="68" y="148" fill="#94a3b8" font-family="monospace" font-size="11">function solve(input) {</text>
  <text x="88" y="168" fill="#e2e8f0" font-family="monospace" font-size="11">// your solution</text>
  <text x="68" y="188" fill="#94a3b8" font-family="monospace" font-size="11">}</text>
  <rect x="68" y="210" width="120" height="28" rx="6" fill="#2563eb"/>
  <text x="128" y="229" text-anchor="middle" fill="#e2e8f0" font-family="sans-serif" font-size="11" font-weight="600">Submit</text>

  <rect x="388" y="88" width="300" height="160" rx="12" fill="#0e141b" stroke="#334155"/>
  <text x="408" y="118" fill="#2563eb" font-family="sans-serif" font-size="13" font-weight="600">Leaderboard</text>
  <rect x="408" y="132" width="260" height="24" rx="4" fill="#1c232d"/>
  <text x="420" y="148" fill="#e2e8f0" font-family="sans-serif" font-size="10">1. Player_A  2,450 pts</text>
  <rect x="408" y="162" width="260" height="24" rx="4" fill="#1c232d"/>
  <text x="420" y="178" fill="#e2e8f0" font-family="sans-serif" font-size="10">2. Player_B  2,180 pts</text>
  <rect x="408" y="192" width="260" height="24" rx="4" fill="#2563eb" fill-opacity="0.2" stroke="#2563eb"/>
  <text x="420" y="208" fill="#2563eb" font-family="sans-serif" font-size="10">3. You  1,920 pts</text>

  <rect x="388" y="268" width="300" height="160" rx="12" fill="#0e141b" stroke="#334155"/>
  <text x="408" y="298" fill="#2563eb" font-family="sans-serif" font-size="13" font-weight="600">Battle Mode</text>
  <rect x="408" y="314" width="110" height="90" rx="8" fill="#1c232d" stroke="#334155"/>
  <text x="463" y="365" text-anchor="middle" fill="#94a3b8" font-family="sans-serif" font-size="22">VS</text>
  <rect x="558" y="314" width="110" height="90" rx="8" fill="#1c232d" stroke="#334155"/>
  <text x="428" y="340" fill="#e2e8f0" font-family="sans-serif" font-size="10">You</text>
  <text x="598" y="340" fill="#e2e8f0" font-family="sans-serif" font-size="10">Opponent</text>

  <rect x="48" y="260" width="300" height="48" rx="8" fill="#1c232d" stroke="#334155"/>
  <text x="68" y="282" fill="#94a3b8" font-family="sans-serif" font-size="10">Level 12</text>
  <rect x="68" y="290" width="200" height="8" rx="4" fill="#334155"/>
  <rect x="68" y="290" width="140" height="8" rx="4" fill="#2563eb"/>
  <text x="288" y="282" fill="#2563eb" font-family="sans-serif" font-size="10">1,920 pts</text>
</svg>
